===========Visit DUSTorrents for more Exclusives==============

Visit DusTorrents for more exclusives....
a Complete FreeLeech Site!! Registrations are absolutely FREE!!

Register by visiting..... www.dustorrents


===========Visit DUSTorrents for more Exclusives==============


[CENTER]
[img]http://picturestack.com/113/324/4TI1qsBYCX8.jpg[/img]

Shanghai (2012) 1CD DVD Rip Xvid MP3 Subs-ModernMirza

[B][COLOR="#FF0000"]SOURCE/CREDITS: MUKESHAMBANI![/COLOR][/B]

Sample:

Information:

[CODE]General
Complete name                            : Shanghai (2012) 1CD DVD Rip Xvid MP3 Subs .avi
Format                                   : AVI
Format/Info                              : Audio Video Interleave
File size                                : 698 MiB
Duration                                 : 1h 53mn
Overall bit rate                         : 856 Kbps
Writing library                          : VirtualDub build 32661/release

Video
ID                                       : 0
Format                                   : MPEG-4 Visual
Format profile                           : Advanced Simple@L5
Format settings, BVOP                    : 2
Format settings, QPel                    : Yes
Format settings, GMC                     : No warppoints
Format settings, Matrix                  : Default (H.263)
Codec ID                                 : XVID
Codec ID/Hint                            : XviD
Duration                                 : 1h 53mn
Bit rate                                 : 751 Kbps
Width                                    : 640 pixels
Height                                   : 272 pixels
Display aspect ratio                     : 2.35:1
Frame rate                               : 23.976 fps
Color space                              : YUV
Chroma subsampling                       : 4:2:0
Bit depth                                : 8 bits
Scan type                                : Progressive
Compression mode                         : Lossy
Bits/(Pixel*Frame)                       : 0.180
Stream size                              : 612 MiB (88%)
Writing library                          : XviD 1.2.1 (UTC 2008-12-04)

Audio
ID                                       : 1
Format                                   : MPEG Audio
Format version                           : Version 1
Format profile                           : Layer 3
Mode                                     : Joint stereo
Mode extension                           : MS Stereo
Codec ID                                 : 55
Codec ID/Hint                            : MP3
Duration                                 : 1h 53mn
Bit rate mode                            : Constant
Bit rate                                 : 96.0 Kbps
Channel(s)                               : 2 channels
Sampling rate                            : 32.0 KHz
Compression mode                         : Lossy
Stream size                              : 78.2 MiB (11%)
Alignment                                : Split accross interleaves
Interleave, duration                     : 42 ms (1.00 video frame)
Interleave, preload duration             : 500 ms
Writing library                          : LAME3.99r
Encoding settings                        : -m j -V 4 -q 2 -lowpass 15.1 -b 96[/CODE]

Screenshots:
[img]http://picturestack.com/109/426/t0as6DOu.png[/img]
[img]http://picturestack.com/109/426/NKbs55Ba.png[/img]
[img]http://picturestack.com/109/426/hzNs3b9a.png[/img]
[img]http://picturestack.com/109/426/DN0s1ZZr.png[/img][/CENTER]

dustorrents